<svg version="1.0" xmlns="http://www.w3.org/2000/svg" width="24" height="24" viewBox="0 0 211 148"><path d="M167.2 6.2c-.7.7-1.2 3.3-1.2 6 0 6.3 1.2 6.8 15.2 6.8 13.4 0 15-.7 15.2-6.7.1-6.8-.9-7.3-15.3-7.3-8.5 0-13.1.4-13.9 1.2m26.8 5.3V16h-26V7h26zM79.5 19.7c-4.2.9-18.1 5.5-21.3 6.9-5.9 2.7-11.5 12.3-18.6 31.4C35.1 70.4 33 82.7 33 97.2c0 11.1.1 11.8 2.6 14.7 1.4 1.7 3.2 3.1 4 3.1s1.4.3 1.4.7c0 .5 1 1.3 2.3 1.9 1.2.6 6.2 3.2 11.2 5.7 4.9 2.5 9.2 4.4 9.6 4.1.4-.2 1 0 1.4.6.3.5 2.1 1 4 1 2.6 0 3.9-.7 5.9-3.3 3.9-4.7 4-4.9 5.4-8.1 1.2-2.7 1.5-2.8 5.5-2 4.9 1 30.8 1.1 38.4.2l5.1-.7 1.5 3.8c2.4 5.9 6.4 10.1 9.7 10.1 2.8 0 20.1-7 22.8-9.2.6-.6 1.2-.7 1.2-.2s.5.1 1.1-.8c.5-1 1.7-1.8 2.4-1.8.8 0 1.5-.3 1.5-.8 0-.4 1.3-1.3 2.8-2 4.8-2.1 5.7-5.1 5.6-19.1-.1-6.9-.7-14.6-1.3-17.1-.7-2.5-1.3-5.4-1.5-6.5-1.8-9.9-14.4-38.2-18.8-42.3-2.9-2.6-20.5-8.8-27.7-9.8-4.3-.5-5-.4-6.7 1.8-3.1 4-5.2 4.4-18.1 3.8-11.6-.5-12.3-.6-15-3.3-2.8-2.6-5.1-3.1-9.8-2m8.4 5.2c1.9 3.7 2.1 3.8 5.9 3.1 6-1.1 17.2-1.2 22.5-.2l4.8 1 2-3.9c1.1-2.2 2.2-3.9 2.5-3.9 1.6 0 11 2.6 19.2 5.2 8.3 2.7 9.6 3.4 11.7 6.7 4.4 7.1 11.5 22.1 14 29.6 3.3 10.2 5.7 27.7 5.3 38.3l-.3 8.7-8.3 5.2c-7.9 4.9-19.6 10.4-25.4 11.8-2.4.6-3 .2-6.3-4.9-1.9-3-3.5-5.8-3.5-6.1s2.5-1.6 5.5-3c5.2-2.3 6.6-3.7 4.7-4.9-.5-.3-3.7.7-7.2 2.1-17.4 7-41.7 6.9-59.1-.1-3.4-1.4-6.6-2.3-7.1-2-1.9 1.2-.5 2.6 4.7 4.9 3 1.4 5.5 2.7 5.5 3 0 .2-1.6 3-3.6 6.1-3.2 5-3.8 5.5-6.2 4.9-5.8-1.4-17.5-6.9-25.4-11.8l-8.3-5.2-.3-8c-.9-22.1 4.3-42 16.8-64 4.5-7.9 4.6-8 11-10.3s19.3-5.9 21.7-6.1c.7-.1 2.1 1.6 3.2 3.8"/><path d="M73.9 69.9c-3.6 3.6-3.9 4.3-3.9 9.6s.3 6 3.9 9.6c3.1 3.1 4.6 3.9 7.6 3.9 10.4 0 16.4-12 10.7-21.2-2.5-4-5.8-5.8-10.9-5.8-2.8 0-4.4.8-7.4 3.9m14.4 2c3.7 3.7 4.1 11.2.7 14.3-5.9 5.5-10.3 5.3-14-.7-3.1-5-2.6-9.3 1.5-13.8 3-3.3 4-3.8 6.3-3.2 1.5.3 4 1.9 5.5 3.4m34.6-4.2c-8.4 5.2-8 20.2.6 24.1 5.2 2.4 9.4 1.5 13.6-2.7 3.6-3.6 3.9-4.3 3.9-9.6s-.3-6-3.9-9.6c-3.2-3.2-4.6-3.9-7.7-3.9-2.2 0-5.1.8-6.5 1.7m9.4 1.2c.9.1 1.7.8 1.7 1.6s.4 1.5.9 1.5c1.5 0 4.3 7.1 3.7 9.4-.3 1.2-2.2 3.8-4.2 5.8-4.5 4.5-7.5 4.3-12.2-.9-3-3.3-3.3-4.2-2.8-7.6.8-4.6 6.4-10.7 9.3-10.2 1 .2 2.6.4 3.6.4"/></svg>