<svg version="1.0" xmlns="http://www.w3.org/2000/svg" width="24" height="24" viewBox="0 0 375 375"><path d="M275 2.8c-6.6 3.2-18 13.8-26.7 24.9l-6.5 8.3h-7.2c-12.7 0-31.5 6.4-42.4 14.4l-4.7 3.4-8-5.2c-12.8-8.4-25.7-12.5-40-12.6l-7-.1-5.5-7.5C116.6 14.1 98-1.5 95.1 1.6c-.9.8.2 13.2 3.4 41.4l.6 5.5-7.1 8c-12.7 14.1-18.2 25.6-20.2 42-1.4 11.4.4 22.1 5.7 35.5l3.7 9.2-2.1 5.7c-13.7 37.7-8.4 92.4 11.2 114.7 2.2 2.5 3.6 4.8 3.2 5.2-.3.4-17.4 1-37.8 1.4-20.5.3-38.2.7-39.4.7-1.2.1-4.7 2.4-7.7 5.2-4.5 4.1-5.9 6.2-7.2 10.4-3.1 10.8 1.8 21.4 12.6 27.1 3.3 1.8 7.2 1.9 65.4 2.2l61.9.3-.6 3.9c-.9 7-4.8 13.2-14.7 23.5-5.3 5.5-11.4 12.3-13.6 15-4.8 6.2-8.1 13.2-6.8 14.5.6.6 4.7-.2 10.9-2.1 15.1-4.5 29.5-7.9 34.1-7.9 3 0 7 1.5 14.5 5.3l10.4 5.2h24l10.5-5.3c10.2-5.2 10.7-5.4 17-4.8 6.5.5 18.7 3.5 33.5 8 4.9 1.6 8.3 2.2 8.9 1.6 1.3-1.3-2-8.3-6.8-14.5-2.2-2.7-8.3-9.5-13.6-15-9.9-10.3-13.8-16.5-14.7-23.5l-.6-3.9 61.9-.3c58.2-.3 62.1-.4 65.4-2.2 13.9-7.4 17.9-24.1 8.2-34.8-7.7-8.6-4.6-8-48.2-8.7-21.4-.3-39.1-.9-39.5-1.3-.4-.3 1.4-3.2 3.9-6.3 2.5-3 5.5-7.3 6.6-9.5 8.8-17.3 13.3-45.5 11-69.4-1.4-14.4-2.1-18-6.2-31.3l-3.1-10.2 3.1-6.8c6.3-14 8.2-25.7 6.2-38.8-2.3-15.2-8-26.6-20-40l-7.1-8 .5-5c.3-2.8 1.4-13.2 2.6-23.3s2-18.7 1.8-19.1c-.2-.5-2.8.3-5.8 1.7M159.5 62.4c12.9 6.4 26.5 20.9 26.5 28.4 0 2.4 1.8 4 2.4 2 .2-.7.9-3.3 1.6-5.8 1.9-6.8 14.9-19.4 25.4-24.6 7.2-3.5 8.7-3.9 17.6-4.2 15-.6 24.4 3.2 34.8 14.2 9.4 9.9 13.7 21.7 13 36-.3 8-.8 10.1-4.1 17-11.6 24.5-39.3 34.1-64.4 22.2-4.2-2-7.7-3.5-7.8-3.4-.2.2-3.9 7-8.2 15.1-4.4 8.2-8.4 14.9-8.8 14.9s-4.4-6.7-8.8-14.9c-4.3-8.1-8-14.9-8.2-15.1-.1-.1-3.5 1.3-7.6 3.3-10.5 5-20 6.3-30.3 4.2-9.9-2-17-5.5-23.4-11.2-10.2-9.2-15.3-20.7-15.4-34.5 0-14.2 5-25.8 15.6-35.8 9.7-9.2 18-12.3 32.2-11.9 9.4.2 10.6.5 17.9 4.1m-15.1 197c1.8.7 4.2 2.6 5.4 4.1l2.2 2.7 4-3.6c5.1-4.6 11.1-5 15.3-1.2 3.4 3.1 3.9 6.6 3.5 22.9-.3 12.7-.4 13.7-2.7 16.1-4.8 5.1-13.6 4.1-17.6-2-1.7-2.7-3.5-3.1-3.5-1 0 .8-1.2 2.4-2.6 3.5-3.9 3.1-10.9 2.8-15.8-.5l-3.9-2.6.5-15.7c.5-17 1.1-19.1 6.1-22.1 3.8-2.4 4.7-2.4 9.1-.6m74.6 3.2c2.2 2 4.2 3.5 4.3 3.3s.7-1.3 1.3-2.4c2.7-4.9 12.4-6.1 16.9-2.3 3.5 3.1 4.4 7.9 4.5 23.5v13.2l-3.7 2.6c-4.8 3.2-11.8 3.4-15.7.4-1.4-1.1-2.6-2.7-2.6-3.4 0-2.6-2-2.6-3-.1-2 5.4-11.1 7.7-16.4 4.2-3.4-2.2-4.1-6.3-4.1-23.4v-14.4l2.8-2.4c4.5-3.8 10.6-3.4 15.7 1.2"/><path d="M130.5 84.9c-7.8 3.5-12.5 11.3-12.5 20.8 0 19.2 22.4 29.5 37.5 17.1 12.9-10.7 9.8-31.8-5.7-38.3-5.1-2.1-14.3-1.9-19.3.4m94-.2c-14.9 7.8-17.5 27.2-5.1 38.1 9.7 8.5 26.6 6.2 34.1-4.6 4-5.8 4.8-16.7 1.6-22.9-2.3-4.6-7-8.9-11.8-11-4.4-1.8-15.1-1.6-18.8.4m91.9-62.3c-.3.8-.4 2.3-.2 3.3.3 1.7 2 1.8 24.8 1.8h24.5v-6l-24.3-.3c-20.5-.2-24.3 0-24.8 1.2"/></svg>